<?xml version="1.0" encoding="utf-8"?>
<!-- Generator: Adobe Illustrator 23.0.2, SVG Export Plug-In . SVG Version: 6.00 Build 0)  -->
<svg version="1.0" id="Layer_1" xmlns="http://www.w3.org/2000/svg" xmlns:xlink="http://www.w3.org/1999/xlink" x="0px" y="0px"
	 viewBox="0 0 24 24" style="enable-background:new 0 0 24 24;" xml:space="preserve">
<style type="text/css">
	.st0{fill:#010101;}
</style>
<g>
	<path d="M12,10.63c-0.76,0-1.37,0.61-1.37,1.37c0,0.76,0.61,1.37,1.37,1.37s1.37-0.61,1.37-1.37
		C13.37,11.24,12.76,10.63,12,10.63z"/>
	<path d="M24,11.04h-1.37c-0.46-5.16-4.58-9.26-9.75-9.68V0.11h-1.85v1.26C5.9,1.83,1.82,5.91,1.37,11.04H0.1v1.85h1.26
		c0.43,5.16,4.52,9.28,9.67,9.74v1.26h1.85v-1.25c5.19-0.42,9.33-4.56,9.76-9.75H24V11.04z M19.99,11.04h-2.62
		c-0.4-2.27-2.21-4.05-4.49-4.42V4C16.59,4.41,19.55,7.34,19.99,11.04z M15.22,12.89c-0.31,1.13-1.2,2.02-2.34,2.33v-0.93h-1.85
		v0.91c-1.09-0.33-1.94-1.2-2.25-2.3h0.88v-1.85H8.8c0.32-1.07,1.16-1.91,2.23-2.24v0.91h1.85V8.78c1.11,0.3,1.99,1.16,2.32,2.26
		h-0.64v1.85H15.22z M11.03,4.02v2.62c-2.24,0.4-4,2.17-4.4,4.41H4.01C4.45,7.37,7.36,4.46,11.03,4.02z M4,12.89h2.62
		c0.37,2.27,2.15,4.07,4.41,4.48v2.62C7.34,19.54,4.41,16.6,4,12.89z M12.88,20v-2.62c2.3-0.37,4.12-2.19,4.5-4.49H20
		C19.58,16.63,16.62,19.59,12.88,20z"/>
</g>
<g>
</g>
<g>
</g>
<g>
</g>
<g>
</g>
<g>
</g>
<g>
</g>
</svg>
